Coordinates
version=1
nRows=54
nColumns=12
inDegrees=yes

Units are S.I. units (second, meters, Newtons, ...)
Angles are in degrees

endheader
time	SC_y	SC_z	SC_x	AC_y	AC_z	AC_x	GH_y	GH_z	GH_yy	EL_x	PS_y
       0.0              -32.92          37.43          64.19          60.54         -12.12          6.889          -30.5          24.58         -20.19          51.09          144.7
   0.02951              -32.92          37.43          64.18          60.54         -12.12          6.889         -30.52          24.58         -20.18           51.1          144.7
   0.05902              -32.92          37.43          64.17          60.54         -12.12          6.889         -30.54          24.57         -20.18           51.1          144.7
   0.08853              -32.93          37.43          64.16          60.54         -12.12          6.889         -30.56          24.57         -20.17          51.11          144.7
     0.118              -32.93          37.43          64.15          60.54         -12.11          6.889         -30.59          24.57         -20.16          51.11          144.6
    0.1475              -32.93          37.43          64.14          60.54         -12.11          6.888         -30.61          24.56         -20.16          51.12          144.6
    0.1771              -32.94          37.43          64.12          60.53         -12.11          6.888         -30.64          24.56         -20.15          51.13          144.6
    0.2066              -32.94          37.43          64.11          60.53         -12.11          6.888         -30.67          24.55         -20.14          51.13          144.6
    0.2361              -32.94          37.43           64.1          60.53         -12.11          6.888          -30.7          24.55         -20.13          51.14          144.6
    0.2656              -32.95          37.43          64.08          60.53         -12.11          6.888         -30.73          24.54         -20.12          51.15          144.6
    0.2951              -32.95          37.43          64.06          60.53          -12.1          6.888         -30.77          24.53         -20.11          51.16          144.6
    0.3246              -32.95          37.43          64.05          60.53          -12.1          6.888         -30.81          24.53          -20.1          51.17          144.6
    0.3541              -32.96          37.43          64.03          60.53          -12.1          6.887         -30.85          24.52         -20.09          51.18          144.6
    0.3836              -32.96          37.43          64.01          60.53          -12.1          6.887         -30.89          24.51         -20.08          51.19          144.5
    0.4131              -32.97          37.43          63.98          60.53          -12.1          6.887         -30.94           24.5         -20.06           51.2          144.5
    0.4426              -32.97          37.43          63.96          60.53         -12.09          6.887         -30.99          24.49         -20.05          51.21          144.5
    0.4721              -32.98          37.43          63.93          60.52         -12.09          6.886         -31.05          24.48         -20.03          51.22          144.5
    0.5017              -32.99          37.43           63.9          60.52         -12.09          6.886         -31.11          24.47         -20.01          51.24          144.5
    0.5312               -33.0          37.43          63.87          60.52         -12.08          6.886         -31.18          24.46         -19.99          51.25          144.4
    0.5607               -33.0          37.43          63.83          60.52         -12.08          6.885         -31.25          24.45         -19.97          51.27          144.4
    0.5902              -33.01          37.43           63.8          60.52         -12.08          6.885         -31.33          24.43         -19.95          51.29          144.4
    0.6197              -33.02          37.43          63.75          60.51         -12.07          6.885         -31.42          24.42         -19.92          51.31          144.4
    0.6492              -33.03          37.43          63.71          60.51         -12.07          6.884         -31.52           24.4         -19.89          51.34          144.3
    0.6787              -33.05          37.43          63.66          60.51         -12.06          6.884         -31.63          24.38         -19.86          51.36          144.3
    0.7082              -33.06          37.43           63.6          60.51         -12.05          6.883         -31.75          24.36         -19.83          51.39          144.2
    0.7377              -33.08          37.43          63.53           60.5         -12.05          6.882         -31.89          24.33         -19.79          51.43          144.2
    0.7672              -33.09          37.44          63.46           60.5         -12.04          6.882         -32.04          24.31         -19.74          51.46          144.1
    0.7968              -33.11          37.44          63.38          60.49         -12.03          6.881         -32.21          24.27         -19.69           51.5          144.1
    0.8263              -33.13          37.44          63.29          60.49         -12.02           6.88         -32.41          24.24         -19.64          51.55          144.0
    0.8558              -33.16          37.44          63.19          60.48         -12.01          6.879         -32.63           24.2         -19.57           51.6          143.9
    0.8853              -33.19          37.44          63.07          60.48          -12.0          6.878         -32.88          24.16          -19.5          51.66          143.8
    0.9148              -33.22          37.44          62.93          60.47         -11.98          6.877         -33.16           24.1         -19.42          51.73          143.7
    0.9443              -33.25          37.44          62.77          60.46         -11.96          6.875          -33.5          24.04         -19.32          51.81          143.6
    0.9738               -33.3          37.44          62.59          60.45         -11.94          6.873         -33.88          23.98         -19.21           51.9          143.5
     1.003              -33.35          37.44          62.38          60.44         -11.92          6.871         -34.33          23.89         -19.08          52.01          143.3
     1.033              -33.41          37.44          62.13          60.42         -11.89          6.869         -34.86           23.8         -18.92          52.14          143.1
     1.062              -33.48          37.44          61.83          60.41         -11.86          6.866          -35.5          23.69         -18.74          52.29          142.9
     1.092              -33.56          37.44          61.47          60.39         -11.82          6.862         -36.25          23.55         -18.52          52.48          142.6
     1.121              -33.67          37.44          61.03          60.36         -11.78          6.858         -37.17          23.39         -18.25           52.7          142.3
     1.151              -33.79          37.44          60.51          60.33         -11.72          6.853         -38.29          23.18         -17.93          52.97          141.9
      1.18              -33.95          37.44          59.85           60.3         -11.65          6.846         -39.67          22.94         -17.52           53.3          141.4
      1.21              -34.14          37.44          59.04          60.25         -11.56          6.838         -41.39          22.63         -17.02          53.71          140.8
     1.239              -34.38          37.45          58.01          60.19         -11.45          6.828         -43.56          22.24         -16.39          54.24          140.1
     1.269              -34.69          37.45           56.7          60.12          -11.3          6.815         -46.32          21.74         -15.59           54.9          139.1
     1.298              -35.09          37.45          55.03          60.03         -11.12          6.799         -49.86          21.11         -14.56          55.75          137.8
     1.328              -35.59          37.46          52.89          59.91         -10.89          6.777         -54.39           20.3         -13.24          56.84          136.2
     1.357              -36.24          37.46          50.15          59.75         -10.59           6.75         -60.18          19.26         -11.56          58.23          134.2
     1.387              -37.05          37.47           46.7          59.56         -10.22          6.716         -67.46          17.95         -9.442          59.98          131.6
     1.416              -38.05          37.48           42.5          59.33         -9.761          6.675         -76.33          16.36         -6.862          62.12          128.5
     1.446               -39.2          37.49          37.64          59.06         -9.231          6.627         -86.61          14.51         -3.871          64.59          124.9
     1.475              -40.44           37.5          32.37          58.76         -8.659          6.575         -97.74          12.52        -0.6332          67.27          120.9
     1.505              -41.69          37.51           27.1          58.47         -8.086          6.523         -108.9          10.52          2.605          69.95          117.0
     1.534              -42.84          37.52          22.23           58.2         -7.557          6.475         -119.2          8.674          5.596          72.43          113.4
     1.564              -43.83          37.53          18.04          57.96           -7.1          6.434         -128.0          7.082          8.176          74.56          110.2
